<svg width="256" height="256" viewBox="0 0 256 256" fill="none" xmlns="http://www.w3.org/2000/svg">
<g clip-path="url(#clip0_6118_7359)">
<path fill-rule="evenodd" clip-rule="evenodd" d="M128 232C70.5624 232 24 185.438 24 128C24 70.5624 70.5624 24 128 24C185.438 24 232 70.5624 232 128C232 185.438 185.438 232 128 232ZM0 128C0 57.3076 57.3076 0 128 0C198.692 0 256 57.3076 256 128C256 198.692 198.692 256 128 256C57.3076 256 0 198.692 0 128ZM65.2593 118.862C59.0406 124.169 59.0406 132.772 65.2593 138.079L139.702 201.603C145.921 206.909 156.003 206.909 162.222 201.603C168.441 196.296 168.441 187.692 162.222 182.386L99.0392 128.471L162.222 74.555C168.441 69.2485 168.441 60.6448 162.222 55.3382C156.004 50.0317 145.921 50.0317 139.702 55.3382L65.2593 118.862Z" fill="#424242"/>
</g>
<defs>
<clipPath id="clip0_6118_7359">
<rect width="256" height="256" fill="white"/>
</clipPath>
</defs>
</svg>
