<svg width="28" height="17" viewBox="0 0 28 17" fill="none" xmlns="http://www.w3.org/2000/svg">
<path fill-rule="evenodd" clip-rule="evenodd" d="M1.86667 17C0.835737 17 -3.65311e-08 16.1643 -8.15946e-08 15.1333L-6.61499e-07 1.86667C-7.06562e-07 0.835735 0.835735 -3.65311e-08 1.86667 -8.15946e-08L26.1334 -1.14233e-06C27.1643 -1.18739e-06 28.0001 0.835734 28.0001 1.86667L28.0001 15.1333C28.0001 16.1643 27.1643 17 26.1334 17L1.86667 17ZM2.80003 15.1111C2.28457 15.1111 1.8667 14.6932 1.8667 14.1778L1.8667 2.82219C1.8667 2.78475 1.8689 2.74782 1.87319 2.71153L11.3795 8.56157C12.9865 9.55052 15.0135 9.55052 16.6205 8.56157L26.1269 2.71145C26.1312 2.74777 26.1334 2.78472 26.1334 2.82219L26.1334 14.1777C26.1334 14.6932 25.7156 15.1111 25.2001 15.1111L2.80003 15.1111ZM23.6476 1.88886L4.35244 1.88886L12.4277 6.85826C13.3919 7.45162 14.6081 7.45162 15.5723 6.85826L23.6476 1.88886Z" fill="#6576CC"/>
</svg>
