<svg width="17" height="28" viewBox="0 0 17 28" fill="none" xmlns="http://www.w3.org/2000/svg">
<path fill-rule="evenodd" clip-rule="evenodd" d="M0 1.86667C0 0.835737 0.835735 0 1.86667 0H15.1333C16.1643 0 17 0.835735 17 1.86667V26.1334C17 27.1643 16.1643 28.0001 15.1333 28.0001H1.86667C0.835735 28.0001 0 27.1643 0 26.1334V1.86667ZM6 4.06667V3H3.93333C3.41787 3 3 3.41787 3 3.93333V24.0667C3 24.5821 3.41787 25 3.93333 25H13.0667C13.5821 25 14 24.5821 14 24.0667V3.93333C14 3.41787 13.5821 3 13.0667 3H11V4.06667C11 4.58213 10.5821 5 10.0667 5H6.93333C6.41787 5 6 4.58213 6 4.06667Z" fill="#6576CC"/>
</svg>
