<svg width="171" height="171" viewBox="0 0 171 171" fill="none" xmlns="http://www.w3.org/2000/svg">
<path d="M114.035 94.8C119.53 85.1826 123.652 74.1913 123.652 61.8261C123.652 27.4783 96.1739 0 61.8261 0C27.4783 0 0 27.4783 0 61.8261C0 96.1739 27.4783 123.652 61.8261 123.652C74.1913 123.652 85.1826 119.53 94.8 114.035L146.883 166.117C152.194 171.429 160.806 171.429 166.117 166.117V166.117C171.429 160.806 171.429 152.194 166.117 146.883L114.035 94.8ZM61.8261 96.1739C42.5913 96.1739 27.4783 81.0609 27.4783 61.8261C27.4783 42.5913 42.5913 27.4783 61.8261 27.4783C81.0609 27.4783 96.1739 42.5913 96.1739 61.8261C96.1739 81.0609 81.0609 96.1739 61.8261 96.1739Z" fill="#6576CC"/>
</svg>
