<svg width="100" height="100" viewBox="0 0 100 100" fill="none" xmlns="http://www.w3.org/2000/svg">
<g clip-path="url(#clip0_5888_1257)">
<rect width="100" height="100" fill="none"/>
<path d="M53.1274 89.6748H54.0283C53.9551 90.3926 53.7573 91.0127 53.4351 91.5352C53.1128 92.0527 52.6733 92.4507 52.1167 92.729C51.5601 93.0073 50.8887 93.1465 50.1025 93.1465C49.4971 93.1465 48.9478 93.0317 48.4546 92.8022C47.9663 92.5728 47.5464 92.248 47.1948 91.8281C46.8433 91.4033 46.5723 90.8955 46.3818 90.3047C46.1914 89.7139 46.0962 89.0571 46.0962 88.3345V87.0015C46.0962 86.2788 46.1914 85.6245 46.3818 85.0386C46.5723 84.4478 46.8457 83.9399 47.2021 83.5151C47.5586 83.0903 47.9858 82.7632 48.4839 82.5337C48.9819 82.3042 49.5435 82.1895 50.1685 82.1895C50.9253 82.1895 51.5796 82.3286 52.1313 82.6069C52.6831 82.8804 53.1177 83.2759 53.4351 83.7935C53.7573 84.311 53.9551 84.936 54.0283 85.6685H53.1274C53.0591 85.0923 52.9077 84.604 52.6733 84.2036C52.439 83.8032 52.1143 83.498 51.6992 83.2881C51.2891 83.0732 50.7788 82.9658 50.1685 82.9658C49.6704 82.9658 49.2261 83.061 48.8354 83.2515C48.4448 83.4419 48.1128 83.7153 47.8394 84.0718C47.5659 84.4233 47.356 84.8457 47.2095 85.3389C47.0679 85.832 46.9971 86.3813 46.9971 86.9868V88.3345C46.9971 88.9204 47.0654 89.46 47.2021 89.9531C47.3389 90.4463 47.5391 90.8735 47.8027 91.2349C48.0713 91.5962 48.3984 91.877 48.7842 92.0771C49.1699 92.2773 49.6094 92.3774 50.1025 92.3774C50.7324 92.3774 51.2573 92.2773 51.6772 92.0771C52.1021 91.8721 52.4316 91.5693 52.666 91.1689C52.9004 90.7686 53.0542 90.2705 53.1274 89.6748Z" fill="#424242"/>
<path d="M49.3555 18H46.9385L46.9531 17.231H49.3555C50.1221 17.231 50.7812 17.0601 51.333 16.7183C51.8896 16.3716 52.3193 15.8931 52.6221 15.2827C52.9248 14.6724 53.0762 13.9644 53.0762 13.1587V12.1626C53.0762 11.5474 52.9883 10.9907 52.8125 10.4927C52.6416 9.99463 52.395 9.56982 52.0728 9.21826C51.7505 8.86182 51.3647 8.58838 50.9155 8.39795C50.4712 8.20752 49.9731 8.1123 49.4214 8.1123H46.8945V7.33594H49.4214C50.0854 7.33594 50.6934 7.45068 51.2451 7.68018C51.8018 7.90479 52.2827 8.23193 52.688 8.66162C53.0981 9.08643 53.4131 9.59668 53.6328 10.1924C53.8574 10.7881 53.9697 11.4521 53.9697 12.1846V13.1587C53.9697 13.8911 53.8574 14.5552 53.6328 15.1509C53.4131 15.7466 53.0981 16.2568 52.688 16.6816C52.2778 17.1064 51.792 17.4336 51.2305 17.6631C50.6689 17.8877 50.0439 18 49.3555 18ZM47.3413 7.33594V18H46.4404V7.33594H47.3413Z" fill="#424242"/>
<path d="M10.0244 87.873H7.02148L7.00684 87.1113H9.59229C10.1196 87.1113 10.5688 87.0356 10.9399 86.8843C11.311 86.7329 11.5918 86.5083 11.7822 86.2104C11.9775 85.9077 12.0752 85.5366 12.0752 85.0972C12.0752 84.6479 11.98 84.2769 11.7896 83.9839C11.5991 83.686 11.3135 83.4663 10.9326 83.3247C10.5518 83.1831 10.0732 83.1123 9.49707 83.1123H7.25586V93H6.35498V82.3359H9.49707C10.0391 82.3359 10.5249 82.3896 10.9546 82.4971C11.3843 82.6045 11.7505 82.7729 12.0532 83.0024C12.356 83.2319 12.5854 83.5225 12.7417 83.874C12.9028 84.2207 12.9834 84.6357 12.9834 85.1191C12.9834 85.5586 12.8857 85.9565 12.6904 86.313C12.4951 86.6646 12.2192 86.9526 11.8628 87.1772C11.5112 87.397 11.0889 87.5337 10.5957 87.5874L10.0244 87.873ZM9.9585 93H6.73584L7.19727 92.231H9.9585C10.4858 92.231 10.9351 92.1431 11.3062 91.9673C11.6821 91.7866 11.9702 91.5303 12.1704 91.1982C12.3706 90.8662 12.4707 90.4707 12.4707 90.0117C12.4707 89.6064 12.3828 89.2427 12.207 88.9204C12.0312 88.5981 11.7627 88.3442 11.4014 88.1587C11.04 87.9683 10.5811 87.873 10.0244 87.873H8.15674L8.17139 87.1113H10.8154L10.9766 87.3823C11.4551 87.4312 11.8726 87.5801 12.229 87.8291C12.5903 88.0732 12.8687 88.3833 13.064 88.7593C13.2642 89.1353 13.3643 89.5479 13.3643 89.9971C13.3643 90.6416 13.2202 91.1885 12.9321 91.6377C12.6489 92.082 12.251 92.4214 11.7383 92.6558C11.2305 92.8853 10.6372 93 9.9585 93Z" fill="#424242"/>
<path d="M90.481 82.9731L86.7896 93H85.8521L89.8804 82.3359H90.5322L90.481 82.9731ZM93.8354 93L90.1367 82.9731L90.0854 82.3359H90.7373L94.7729 93H93.8354ZM93.1763 89.2354V90.0117H87.5146V89.2354H93.1763Z" fill="#424242"/>
<rect x="49" y="23" width="2" height="54" rx="1" fill="#6576CC"/>
<rect x="90" y="75" width="2" height="80" rx="1" transform="rotate(90 90 75)" fill="#6576CC"/>
<path d="M47.7441 70.3359L50.0073 74.2251L52.2705 70.3359L54.3872 70.3359L51.1646 75.6167L54.4678 81L52.3291 81L50.0073 77.0376L47.6855 81L45.5396 81L48.8501 75.6167L45.6201 70.3359L47.7441 70.3359Z" fill="#F27878"/>
</g>
<defs>
<clipPath id="clip0_5888_1257">
<rect width="100" height="100" fill="white"/>
</clipPath>
</defs>
</svg>
