<svg width="100" height="100" viewBox="0 0 100 100" fill="none" xmlns="http://www.w3.org/2000/svg">
<g clip-path="url(#clip0_5888_1250)">
<rect width="100" height="100" fill="white"/>
<path d="M49.3555 18H46.9385L46.9531 17.231H49.3555C50.1221 17.231 50.7812 17.0601 51.333 16.7183C51.8896 16.3716 52.3193 15.8931 52.6221 15.2827C52.9248 14.6724 53.0762 13.9644 53.0762 13.1587V12.1626C53.0762 11.5474 52.9883 10.9907 52.8125 10.4927C52.6416 9.99463 52.395 9.56982 52.0728 9.21826C51.7505 8.86182 51.3647 8.58838 50.9155 8.39795C50.4712 8.20752 49.9731 8.1123 49.4214 8.1123H46.8945V7.33594H49.4214C50.0854 7.33594 50.6934 7.45068 51.2451 7.68018C51.8018 7.90479 52.2827 8.23193 52.688 8.66162C53.0981 9.08643 53.4131 9.59668 53.6328 10.1924C53.8574 10.7881 53.9697 11.4521 53.9697 12.1846V13.1587C53.9697 13.8911 53.8574 14.5552 53.6328 15.1509C53.4131 15.7466 53.0981 16.2568 52.688 16.6816C52.2778 17.1064 51.792 17.4336 51.2305 17.6631C50.6689 17.8877 50.0439 18 49.3555 18ZM47.3413 7.33594V18H46.4404V7.33594H47.3413Z" fill="#424242"/>
<path d="M53.1274 89.6748H54.0283C53.9551 90.3926 53.7573 91.0127 53.4351 91.5352C53.1128 92.0527 52.6733 92.4507 52.1167 92.729C51.5601 93.0073 50.8887 93.1465 50.1025 93.1465C49.4971 93.1465 48.9478 93.0317 48.4546 92.8022C47.9663 92.5728 47.5464 92.248 47.1948 91.8281C46.8433 91.4033 46.5723 90.8955 46.3818 90.3047C46.1914 89.7139 46.0962 89.0571 46.0962 88.3345V87.0015C46.0962 86.2788 46.1914 85.6245 46.3818 85.0386C46.5723 84.4478 46.8457 83.9399 47.2021 83.5151C47.5586 83.0903 47.9858 82.7632 48.4839 82.5337C48.9819 82.3042 49.5435 82.1895 50.1685 82.1895C50.9253 82.1895 51.5796 82.3286 52.1313 82.6069C52.6831 82.8804 53.1177 83.2759 53.4351 83.7935C53.7573 84.311 53.9551 84.936 54.0283 85.6685H53.1274C53.0591 85.0923 52.9077 84.604 52.6733 84.2036C52.439 83.8032 52.1143 83.498 51.6992 83.2881C51.2891 83.0732 50.7788 82.9658 50.1685 82.9658C49.6704 82.9658 49.2261 83.061 48.8354 83.2515C48.4448 83.4419 48.1128 83.7153 47.8394 84.0718C47.5659 84.4233 47.356 84.8457 47.2095 85.3389C47.0679 85.832 46.9971 86.3813 46.9971 86.9868V88.3345C46.9971 88.9204 47.0654 89.46 47.2021 89.9531C47.3389 90.4463 47.5391 90.8735 47.8027 91.2349C48.0713 91.5962 48.3984 91.877 48.7842 92.0771C49.1699 92.2773 49.6094 92.3774 50.1025 92.3774C50.7324 92.3774 51.2573 92.2773 51.6772 92.0771C52.1021 91.8721 52.4316 91.5693 52.666 91.1689C52.9004 90.7686 53.0542 90.2705 53.1274 89.6748Z" fill="#424242"/>
<path d="M30.4248 49.873L27.4219 49.873L27.4072 49.1113L29.9927 49.1113C30.52 49.1113 30.9692 49.0356 31.3403 48.8843C31.7114 48.7329 31.9922 48.5083 32.1826 48.2105C32.3779 47.9077 32.4756 47.5366 32.4756 47.0972C32.4756 46.648 32.3804 46.2769 32.1899 45.9839C31.9995 45.686 31.7139 45.4663 31.333 45.3247C30.9521 45.1831 30.4736 45.1123 29.8975 45.1123L27.6562 45.1123L27.6562 55L26.7554 55L26.7554 44.3359L29.8975 44.3359C30.4394 44.3359 30.9253 44.3896 31.355 44.4971C31.7847 44.6045 32.1509 44.773 32.4536 45.0024C32.7563 45.2319 32.9858 45.5225 33.1421 45.874C33.3032 46.2207 33.3838 46.6357 33.3838 47.1191C33.3838 47.5586 33.2861 47.9565 33.0908 48.313C32.8955 48.6646 32.6196 48.9526 32.2632 49.1772C31.9116 49.397 31.4893 49.5337 30.9961 49.5874L30.4248 49.873ZM30.3589 55L27.1362 55L27.5977 54.231L30.3589 54.231C30.8862 54.231 31.3354 54.1431 31.7065 53.9673C32.0825 53.7866 32.3706 53.5303 32.5708 53.1982C32.771 52.8662 32.8711 52.4707 32.8711 52.0117C32.8711 51.6064 32.7832 51.2427 32.6074 50.9204C32.4316 50.5981 32.1631 50.3442 31.8018 50.1587C31.4404 49.9683 30.9814 49.873 30.4248 49.873L28.5571 49.873L28.5718 49.1113L31.2158 49.1113L31.3769 49.3823C31.8555 49.4312 32.2729 49.5801 32.6294 49.8291C32.9907 50.0732 33.269 50.3833 33.4644 50.7593C33.6645 51.1353 33.7646 51.5479 33.7646 51.9971C33.7646 52.6416 33.6206 53.1885 33.3325 53.6377C33.0493 54.082 32.6514 54.4214 32.1387 54.6558C31.6309 54.8853 31.0376 55 30.3589 55Z" fill="#424242"/>
<path d="M70.1685 44.9731L66.477 55L65.5395 55L69.5679 44.3359L70.2197 44.3359L70.1685 44.9731ZM73.5229 55L69.8242 44.9731L69.7729 44.3359L70.4248 44.3359L74.4604 55L73.5229 55ZM72.8638 51.2354L72.8638 52.0117L67.2021 52.0117L67.2021 51.2354L72.8638 51.2354Z" fill="#424242"/>
<rect x="49" y="20" width="2" height="60" rx="1" fill="#6576CC"/>
<path d="M47.7441 44.3359L50.0073 48.2251L52.2705 44.3359L54.3872 44.3359L51.1646 49.6167L54.4678 55L52.3291 55L50.0073 51.0376L47.6855 55L45.5396 55L48.8501 49.6167L45.6201 44.3359L47.7441 44.3359Z" fill="#F27878"/>
</g>
<defs>
<clipPath id="clip0_5888_1250">
<rect width="100" height="100" fill="white"/>
</clipPath>
</defs>
</svg>
